<svg xmlns="http://www.w3.org/2000/svg" viewBox="0 0 512 512">
  <!-- Background -->
  <rect width="512" height="512" rx="40" fill="#B30000"/>
  
  <!-- Left Page -->
  <path d="M80 140c0-20 15-35 35-35h100c20 0 35 15 35 35v230c0 20-15 35-35 35H115c-20 0-35-15-35-35V140z" fill="white"/>
  
  <!-- Right Page -->
  <path d="M262 140c0-20 15-35 35-35h100c20 0 35 15 35 35v230c0 20-15 35-35 35H297c-20 0-35-15-35-35V140z" fill="white"/>
  
  <!-- “S” swirl -->
  <path d="M200 180c20-15 45-25 70-25 30 0 55 10 75 25 10 7 10 20 0 27-15 10-35 17-60 17-30 0-55 10-75 25-10 7-10 20 0 27 20 15 45 25 75 25 25 0 45-7 60-17 10-7 25 3 20 15-20 35-60 50-100 50-35 0-70-12-95-35-30-25-25-65 10-85 15-10 35-15 60-17 20-2 45-5 65-15 10-7 10-20 0-27-20-15-45-25-70-25-25 0-45 7-60 17-10 7-25-3-20-15z" fill="#B30000"/>
  
  <!-- Brand text -->
  <text x="50%" y="90%" text-anchor="middle" font-family="Poppins, Arial Black, sans-serif" font-size="80" fill="white">Storix</text>
</svg>